<?xml version="1.0" encoding="utf-8"?>
<!-- Generator: Adobe Illustrator 18.0.0, SVG Export Plug-In . SVG Version: 6.00 Build 0)  -->
<!DOCTYPE svg PUBLIC "-//W3C//DTD SVG 1.1//EN" "http://www.w3.org/Graphics/SVG/1.1/DTD/svg11.dtd">
<svg version="1.1" id="Layer_1" xmlns="http://www.w3.org/2000/svg" xmlns:xlink="http://www.w3.org/1999/xlink" x="0px" y="0px"
	 viewBox="0 0 200 200" enable-background="new 0 0 200 200" xml:space="preserve">
<path d="M100,0C44.772,0,0,44.772,0,100c0,55.229,44.772,100,100,100s100-44.771,100-100C200,44.772,155.228,0,100,0z
	 M158.839,108.839c-2.44,2.44-5.64,3.661-8.839,3.661s-6.398-1.221-8.839-3.661l-28.66-28.66v69.82c0,6.903-5.597,12.5-12.5,12.5
	s-12.5-5.597-12.5-12.5V80.177l-28.662,28.661c-4.88,4.882-12.795,4.882-17.677-0.001c-4.882-4.882-4.881-12.796,0-17.677
	l49.996-49.993c0.293-0.294,0.602-0.572,0.923-0.835c0.133-0.109,0.274-0.204,0.41-0.307c0.189-0.143,0.375-0.289,0.572-0.421
	c0.169-0.113,0.344-0.21,0.517-0.314c0.177-0.106,0.35-0.217,0.533-0.315c0.176-0.094,0.358-0.174,0.538-0.259
	c0.19-0.09,0.376-0.184,0.571-0.265c0.174-0.072,0.351-0.13,0.528-0.193c0.208-0.075,0.414-0.155,0.628-0.22
	c0.174-0.053,0.351-0.091,0.527-0.135c0.219-0.056,0.435-0.117,0.659-0.161c0.198-0.039,0.399-0.062,0.599-0.091
	c0.204-0.03,0.404-0.068,0.611-0.088c0.349-0.034,0.699-0.048,1.049-0.053c0.06-0.001,0.118-0.009,0.179-0.009
	c0.06,0,0.117,0.008,0.177,0.009c0.351,0.005,0.702,0.019,1.051,0.053c0.206,0.02,0.406,0.058,0.609,0.088
	c0.201,0.03,0.402,0.052,0.601,0.092c0.222,0.044,0.438,0.104,0.655,0.16c0.177,0.045,0.355,0.083,0.531,0.136
	c0.211,0.064,0.416,0.143,0.622,0.218c0.178,0.064,0.358,0.123,0.534,0.195c0.192,0.08,0.376,0.173,0.563,0.261
	c0.183,0.086,0.367,0.167,0.546,0.263c0.179,0.096,0.348,0.204,0.522,0.308c0.177,0.106,0.356,0.206,0.529,0.321
	c0.189,0.126,0.367,0.267,0.548,0.403c0.145,0.109,0.294,0.209,0.435,0.325c0.315,0.259,0.618,0.532,0.907,0.82
	c0.003,0.003,0.007,0.006,0.01,0.009l49.999,49.999C163.72,96.043,163.72,103.957,158.839,108.839z"/>
</svg>
