<?xml version="1.0" encoding="utf-8"?>
<!-- Generator: Adobe Illustrator 18.0.0, SVG Export Plug-In . SVG Version: 6.00 Build 0)  -->
<!DOCTYPE svg PUBLIC "-//W3C//DTD SVG 1.1//EN" "http://www.w3.org/Graphics/SVG/1.1/DTD/svg11.dtd">
<svg version="1.1" id="Layer_1" xmlns="http://www.w3.org/2000/svg" xmlns:xlink="http://www.w3.org/1999/xlink" x="0px" y="0px"
	 viewBox="0 0 200 200" enable-background="new 0 0 200 200" xml:space="preserve">
<path d="M100,0C44.772,0,0,44.772,0,100c0,55.229,44.772,100,100,100s100-44.771,100-100C200,44.772,155.228,0,100,0z
	 M157.578,75.327l-67.025,67.024c-2.434,2.434-5.634,3.661-8.841,3.661c-2.974,0-5.954-1.056-8.333-3.184l-34.214-30.61
	c-5.145-4.603-5.584-12.505-0.981-17.65c4.604-5.145,12.506-5.583,17.65-0.981l25.402,22.727L139.9,57.649
	c4.882-4.881,12.797-4.881,17.678,0C162.459,62.531,162.459,70.445,157.578,75.327z"/>
</svg>
