<?xml version="1.0" encoding="utf-8"?>
<!-- Generator: Adobe Illustrator 18.0.0, SVG Export Plug-In . SVG Version: 6.00 Build 0)  -->
<!DOCTYPE svg PUBLIC "-//W3C//DTD SVG 1.1//EN" "http://www.w3.org/Graphics/SVG/1.1/DTD/svg11.dtd">
<svg version="1.1" id="Layer_1" xmlns="http://www.w3.org/2000/svg" xmlns:xlink="http://www.w3.org/1999/xlink" x="0px" y="0px"
	 viewBox="0 0 200 200" enable-background="new 0 0 200 200" xml:space="preserve">
<path d="M144.029,118.201l-25.714-25.714l24.631-24.631c4.881-4.881,4.881-12.796,0-17.678s-12.796-4.881-17.678,0l-24.631,24.631
	L74.732,48.904c-4.881-4.881-12.796-4.882-17.678,0c-4.881,4.881-4.881,12.796,0,17.678L82.96,92.487l-26.988,26.988
	c-4.882,4.882-4.882,12.797,0,17.678c4.881,4.881,12.796,4.881,17.678,0l26.988-26.988l25.714,25.714
	c4.881,4.881,12.796,4.881,17.678,0C148.91,130.997,148.91,123.083,144.029,118.201z"/>
</svg>
