<?xml version="1.0" encoding="utf-8"?>
<!-- Generator: Adobe Illustrator 18.0.0, SVG Export Plug-In . SVG Version: 6.00 Build 0)  -->
<!DOCTYPE svg PUBLIC "-//W3C//DTD SVG 1.1//EN" "http://www.w3.org/Graphics/SVG/1.1/DTD/svg11.dtd">
<svg version="1.1" id="Layer_1" xmlns="http://www.w3.org/2000/svg" xmlns:xlink="http://www.w3.org/1999/xlink" x="0px" y="0px"
	 viewBox="0 0 200 200" enable-background="new 0 0 200 200" xml:space="preserve">
<path d="M100,0C44.771,0,0,44.771,0,100c0,55.228,44.771,100,100,100s100-44.772,100-100C200,44.771,155.229,0,100,0z
	 M144.029,142.851c-4.881,4.881-12.796,4.881-17.678,0l-25.714-25.714l-26.988,26.988c-4.882,4.882-12.797,4.882-17.678,0
	c-4.881-4.881-4.881-12.796,0-17.678L82.96,99.459L57.054,73.553c-4.881-4.881-4.881-12.796,0-17.678
	c4.882-4.882,12.796-4.881,17.678,0l25.905,25.905l24.631-24.631c4.881-4.881,12.796-4.881,17.678,0
	c4.881,4.881,4.881,12.796,0,17.678l-24.631,24.631l25.714,25.714C148.91,130.054,148.91,137.969,144.029,142.851z"/>
</svg>
