<?xml version="1.0" encoding="utf-8"?>
<!-- Generator: Adobe Illustrator 18.0.0, SVG Export Plug-In . SVG Version: 6.00 Build 0)  -->
<!DOCTYPE svg PUBLIC "-//W3C//DTD SVG 1.1//EN" "http://www.w3.org/Graphics/SVG/1.1/DTD/svg11.dtd">
<svg version="1.1" id="Layer_1" xmlns="http://www.w3.org/2000/svg" xmlns:xlink="http://www.w3.org/1999/xlink" x="0px" y="0px"
	 viewBox="0 0 200 200" enable-background="new 0 0 200 200" xml:space="preserve">
<g>
	<path d="M107.597,108.776v19.267c6.515-0.971,9.842-4.02,9.842-9.01C117.439,114.459,115.082,111.409,107.597,108.776z"/>
	<path d="M85.004,74.539c0,4.297,1.941,7.208,9.563,9.98V65.807C87.914,66.777,85.004,70.103,85.004,74.539z"/>
	<path d="M99.766,0C44.667,0,0,44.667,0,99.766c0,55.099,44.667,99.766,99.766,99.766s99.766-44.667,99.766-99.766
		C199.531,44.667,154.865,0,99.766,0z M108.29,145.369v7.346c0,4.019-3.188,7.207-7.208,7.207c-4.019,0-7.207-3.188-7.207-7.207
		v-7.486c-9.842-1.247-19.129-4.713-27.306-9.703c-2.911-1.802-4.713-4.574-4.713-8.316c0-5.406,4.158-9.426,9.563-9.426
		c1.802,0,3.743,0.693,5.406,1.802c5.823,3.742,11.367,6.376,17.742,7.762v-22.039c-19.959-5.406-29.801-13.03-29.801-29.524
		c0-15.247,11.643-25.504,29.109-27.306v-1.664c0-4.02,3.188-7.208,7.207-7.208c4.02,0,7.208,3.188,7.208,7.208v1.941
		c7.485,1.109,14.139,3.327,20.098,6.654c2.634,1.525,4.99,4.158,4.99,8.317c0,5.267-4.159,9.287-9.425,9.287
		c-1.664,0-3.327-0.416-4.852-1.247c-3.881-2.079-7.762-3.743-11.505-4.713v21.069c21.069,5.683,30.078,14.277,30.078,29.801
		S125.755,143.428,108.29,145.369z"/>
</g>
</svg>
