<?xml version="1.0" encoding="utf-8"?>
<!-- Generator: Adobe Illustrator 18.0.0, SVG Export Plug-In . SVG Version: 6.00 Build 0)  -->
<!DOCTYPE svg PUBLIC "-//W3C//DTD SVG 1.1//EN" "http://www.w3.org/Graphics/SVG/1.1/DTD/svg11.dtd">
<svg version="1.1" id="Layer_1" xmlns="http://www.w3.org/2000/svg" xmlns:xlink="http://www.w3.org/1999/xlink" x="0px" y="0px"
	 viewBox="0 0 200 200" enable-background="new 0 0 200 200" xml:space="preserve">
<g>
	<g>
		<path d="M149,152.344L149,152.344L51,152.343c-6.903,0-12.5-5.597-12.5-12.5s5.597-12.5,12.5-12.5l0,0L149,127.344
			c6.903,0,12.5,5.597,12.5,12.5S155.904,152.344,149,152.344z"/>
	</g>
	<g>
		<path d="M149,112.266H51c-6.903,0-12.5-5.597-12.5-12.5s5.597-12.5,12.5-12.5H149c6.903,0,12.5,5.597,12.5,12.5
			S155.904,112.266,149,112.266z"/>
	</g>
	<g>
		<path d="M149,72.189L149,72.189L51,72.188c-6.903,0-12.5-5.597-12.5-12.5s5.597-12.5,12.5-12.5l0,0L149,47.189
			c6.903,0,12.5,5.597,12.5,12.5S155.904,72.189,149,72.189z"/>
	</g>
</g>
</svg>
