<?xml version="1.0" encoding="utf-8"?>
<!-- Generator: Adobe Illustrator 18.0.0, SVG Export Plug-In . SVG Version: 6.00 Build 0)  -->
<!DOCTYPE svg PUBLIC "-//W3C//DTD SVG 1.1//EN" "http://www.w3.org/Graphics/SVG/1.1/DTD/svg11.dtd">
<svg version="1.1" id="Layer_1" xmlns="http://www.w3.org/2000/svg" xmlns:xlink="http://www.w3.org/1999/xlink" x="0px" y="0px"
	 viewBox="0 0 200 200" enable-background="new 0 0 200 200" xml:space="preserve">
<path d="M100,0C44.772,0,0,44.772,0,100c0,55.229,44.772,100,100,100s100-44.771,100-100C200,44.772,155.228,0,100,0z
	 M159.755,84.249l-49.367,49.366c-2.437,2.437-5.637,3.661-8.84,3.661c-3.083,0-6.169-1.134-8.582-3.413L40.501,84.311
	c-5.019-4.74-5.245-12.651-0.504-17.67c4.74-5.018,12.651-5.245,17.67-0.504l43.634,41.21l40.777-40.776
	c4.882-4.881,12.796-4.881,17.678,0C164.637,71.453,164.637,79.367,159.755,84.249z"/>
</svg>
