<?xml version="1.0" encoding="utf-8"?>
<!-- Generator: Adobe Illustrator 18.0.0, SVG Export Plug-In . SVG Version: 6.00 Build 0)  -->
<!DOCTYPE svg PUBLIC "-//W3C//DTD SVG 1.1//EN" "http://www.w3.org/Graphics/SVG/1.1/DTD/svg11.dtd">
<svg version="1.1" id="Layer_1" xmlns="http://www.w3.org/2000/svg" xmlns:xlink="http://www.w3.org/1999/xlink" x="0px" y="0px"
	 viewBox="0 0 200 200" enable-background="new 0 0 200 200" xml:space="preserve">
<path d="M100,0C44.772,0,0,44.772,0,100c0,55.229,44.772,100,100,100s100-44.771,100-100C200,44.772,155.228,0,100,0z M149,110.833
	l-36.365,0V149c0,6.903-5.597,12.5-12.5,12.5s-12.5-5.597-12.5-12.5v-38.167l-36.636,0c-6.904,0-12.5-5.597-12.5-12.5
	s5.597-12.5,12.5-12.5l36.636,0V51c0-6.904,5.597-12.5,12.5-12.5s12.5,5.596,12.5,12.5v34.833l36.365,0
	c6.904,0,12.5,5.597,12.5,12.5C161.5,105.237,155.904,110.833,149,110.833z"/>
</svg>
