<?xml version="1.0" encoding="utf-8"?>
<!-- Generator: Adobe Illustrator 18.0.0, SVG Export Plug-In . SVG Version: 6.00 Build 0)  -->
<!DOCTYPE svg PUBLIC "-//W3C//DTD SVG 1.1//EN" "http://www.w3.org/Graphics/SVG/1.1/DTD/svg11.dtd">
<svg version="1.1" id="Layer_1" xmlns="http://www.w3.org/2000/svg" xmlns:xlink="http://www.w3.org/1999/xlink" x="0px" y="0px"
	 viewBox="0 0 200 200" enable-background="new 0 0 200 200" xml:space="preserve">
<g>
	<circle cx="98" cy="98.773" r="12.5"/>
	<path d="M155.004,89.913c-1.258-1.888-2.584-3.595-3.83-5.157c-7.341-9.215-15.245-16.59-23.489-21.918
		c-5.998-3.877-11.7-6.493-17.378-7.995l0.001-0.004c-0.087-0.023-0.175-0.039-0.262-0.062c-0.463-0.12-0.927-0.247-1.39-0.352
		c-0.19-0.043-0.379-0.071-0.569-0.111c-0.571-0.125-1.144-0.233-1.717-0.336c-0.321-0.057-0.641-0.116-0.962-0.167
		c-0.673-0.107-1.348-0.195-2.024-0.273c-0.283-0.033-0.566-0.066-0.849-0.094c-0.632-0.061-1.265-0.105-1.898-0.14
		c-0.369-0.021-0.739-0.042-1.108-0.054c-0.512-0.016-1.024-0.02-1.537-0.019c-0.506,0-1.011,0.003-1.515,0.019
		c-0.376,0.013-0.752,0.034-1.128,0.055c-0.627,0.035-1.253,0.078-1.879,0.139c-0.289,0.028-0.579,0.063-0.868,0.096
		c-0.669,0.077-1.338,0.164-2.005,0.27c-0.326,0.051-0.653,0.111-0.979,0.17c-0.568,0.102-1.135,0.209-1.701,0.333
		c-0.192,0.041-0.383,0.069-0.575,0.113c-0.468,0.106-0.937,0.235-1.405,0.356c-0.082,0.021-0.164,0.036-0.246,0.058l0.001,0.004
		c-5.676,1.501-11.379,4.118-17.378,7.995c-8.246,5.329-16.149,12.704-23.489,21.918c-1.247,1.565-2.574,3.273-3.829,5.155
		c-3.647,5.467-3.647,12.259,0,17.726c3.128,4.689,6.943,9.25,12.007,14.352c10.873,10.957,21.556,17.734,32.66,20.719
		c0.567,0.153,1.138,0.269,1.707,0.4l-0.004,0.017c0.159,0.036,0.317,0.06,0.476,0.094c0.622,0.137,1.245,0.258,1.869,0.37
		c0.252,0.045,0.504,0.085,0.756,0.126c0.688,0.111,1.376,0.212,2.066,0.292c0.253,0.03,0.505,0.05,0.758,0.075
		c0.657,0.065,1.314,0.13,1.973,0.168c0.573,0.034,1.146,0.043,1.718,0.057c0.314,0.006,0.626,0.031,0.94,0.031
		c0.025,0,0.051-0.002,0.076-0.002c0.025,0,0.051,0.002,0.077,0.002c0.32,0,0.638-0.025,0.957-0.032
		c0.566-0.013,1.131-0.022,1.698-0.056c0.665-0.038,1.328-0.103,1.99-0.169c0.246-0.025,0.492-0.045,0.739-0.073
		c0.694-0.08,1.386-0.182,2.078-0.294c0.248-0.04,0.496-0.08,0.744-0.124c0.628-0.112,1.254-0.234,1.879-0.372
		c0.157-0.034,0.314-0.058,0.471-0.093l-0.004-0.016c0.569-0.131,1.14-0.248,1.706-0.4c11.104-2.985,21.788-9.763,32.66-20.719
		c5.064-5.103,8.88-9.663,12.007-14.351C158.65,102.169,158.65,95.376,155.004,89.913z M128.799,107.9
		c-8.202,8.265-16.161,13.478-23.657,15.493c-0.341,0.092-0.682,0.165-1.024,0.243c-1.608,0.358-3.19,0.577-4.757,0.661
		c-0.135,0.007-0.27,0.015-0.406,0.02c-0.31,0.012-0.619,0.012-0.928,0.014c-0.344-0.001-0.688-0.001-1.034-0.015
		c-0.1-0.004-0.2-0.01-0.3-0.014c-1.586-0.082-3.188-0.303-4.816-0.665c-0.34-0.078-0.681-0.151-1.021-0.243
		c-7.496-2.015-15.455-7.228-23.657-15.493c-3.267-3.292-5.851-6.238-7.972-9.1c0.384-0.502,0.795-1.024,1.24-1.583
		c5.988-7.517,12.28-13.432,18.703-17.583c4.218-2.727,8.19-4.569,11.829-5.509c0.377-0.1,0.754-0.185,1.131-0.268
		c0.372-0.079,0.744-0.155,1.114-0.219c0.118-0.021,0.237-0.042,0.355-0.062c0.47-0.077,0.939-0.141,1.406-0.193
		c0.088-0.01,0.176-0.02,0.264-0.029c0.422-0.044,0.843-0.073,1.263-0.097c0.186-0.01,0.371-0.021,0.557-0.027
		c0.294-0.011,0.587-0.012,0.88-0.013c0.331,0,0.662,0.002,0.994,0.015c0.148,0.005,0.297,0.014,0.445,0.021
		c0.454,0.025,0.909,0.057,1.366,0.104c0.055,0.006,0.11,0.012,0.165,0.018c0.495,0.055,0.991,0.123,1.49,0.205
		c0.095,0.016,0.19,0.033,0.285,0.05c0.387,0.067,0.777,0.146,1.167,0.23c0.371,0.082,0.741,0.166,1.113,0.264
		c3.641,0.939,7.615,2.783,11.836,5.511c6.422,4.15,12.714,10.066,18.704,17.584c0.444,0.557,0.855,1.079,1.239,1.581
		C134.65,101.662,132.066,104.608,128.799,107.9z"/>
</g>
</svg>
