<?xml version="1.0" encoding="utf-8"?>
<!-- Generator: Adobe Illustrator 18.0.0, SVG Export Plug-In . SVG Version: 6.00 Build 0)  -->
<!DOCTYPE svg PUBLIC "-//W3C//DTD SVG 1.1//EN" "http://www.w3.org/Graphics/SVG/1.1/DTD/svg11.dtd">
<svg version="1.1" id="Layer_1" xmlns="http://www.w3.org/2000/svg" xmlns:xlink="http://www.w3.org/1999/xlink" x="0px" y="0px"
	 viewBox="0 0 200 200" enable-background="new 0 0 200 200" xml:space="preserve">
<g>
	<path d="M59.508,117.54c0.353,0,0.704-0.029,1.055-0.071c0.097-0.012,0.194-0.027,0.291-0.042c0.293-0.045,0.583-0.105,0.87-0.179
		c0.066-0.017,0.131-0.029,0.197-0.048c0.352-0.1,0.698-0.223,1.038-0.367c0.059-0.025,0.117-0.055,0.176-0.082
		c0.291-0.131,0.576-0.279,0.854-0.444c0.043-0.025,0.088-0.042,0.13-0.068c0.04-0.024,0.076-0.053,0.115-0.077
		c0.105-0.067,0.208-0.137,0.311-0.209c0.135-0.094,0.267-0.19,0.395-0.29c0.083-0.065,0.166-0.13,0.247-0.198
		c0.156-0.131,0.306-0.268,0.452-0.408c0.039-0.038,0.082-0.07,0.121-0.109l20.572-20.572c3.459-3.458,3.459-9.065,0-12.523
		c-3.458-3.458-9.065-3.458-12.523,0l-6.67,6.67c1.348-5.925,4.336-11.469,8.825-15.959c6.212-6.212,14.471-9.633,23.257-9.633
		s17.045,3.421,23.257,9.633c3.458,3.458,9.065,3.458,12.523,0c3.459-3.458,3.459-9.065,0-12.523
		c-19.729-19.729-51.83-19.729-71.56,0c-7.308,7.308-12.048,16.425-13.93,26.135l-4.323-4.323c-3.458-3.458-9.065-3.458-12.523,0
		c-3.459,3.458-3.459,9.065,0,12.523l20.572,20.572c0.214,0.214,0.436,0.415,0.667,0.603c1.388,1.134,3.04,1.783,4.73,1.948
		c0.004,0,0.008,0.001,0.012,0.002c0.284,0.027,0.569,0.041,0.853,0.041c0,0,0.001,0,0.001,0c0.001,0,0.001,0,0.001,0
		C59.503,117.541,59.505,117.54,59.508,117.54z"/>
	<path d="M167.336,99.641l-20.572-20.572c-0.33-0.33-0.685-0.618-1.05-0.886c-0.061-0.044-0.12-0.091-0.182-0.134
		c-0.36-0.249-0.734-0.468-1.12-0.658c-0.065-0.032-0.13-0.061-0.196-0.091c-0.403-0.186-0.814-0.349-1.235-0.471
		c-0.018-0.005-0.036-0.008-0.053-0.013c-0.413-0.117-0.833-0.198-1.255-0.255c-0.065-0.009-0.129-0.021-0.195-0.028
		c-0.417-0.046-0.835-0.059-1.254-0.046c-0.087,0.003-0.174,0.007-0.261,0.012c-0.422,0.026-0.842,0.076-1.257,0.162
		c-0.058,0.012-0.114,0.029-0.172,0.042c-0.428,0.097-0.851,0.222-1.263,0.383c-0.017,0.007-0.034,0.011-0.051,0.018
		c-0.425,0.169-0.835,0.38-1.235,0.618c-0.034,0.02-0.071,0.032-0.104,0.052c-0.04,0.025-0.077,0.053-0.117,0.078
		c-0.104,0.066-0.206,0.136-0.308,0.207c-0.136,0.094-0.269,0.192-0.398,0.293c-0.082,0.064-0.164,0.129-0.244,0.196
		c-0.157,0.132-0.307,0.269-0.453,0.41c-0.039,0.038-0.082,0.07-0.12,0.109l-19.254,19.253c-3.458,3.458-3.459,9.065,0,12.523
		c1.729,1.73,3.995,2.594,6.262,2.594c2.266,0,4.533-0.865,6.262-2.594l5.352-5.351c-1.348,5.925-4.336,11.469-8.825,15.959
		c-6.212,6.212-14.471,9.633-23.257,9.633s-17.045-3.421-23.257-9.633c-3.458-3.458-9.065-3.458-12.523,0
		c-3.459,3.458-3.459,9.065,0,12.523c9.865,9.865,22.822,14.797,35.78,14.797s25.915-4.933,35.78-14.797
		c7.308-7.308,12.048-16.425,13.93-26.135l4.323,4.323c3.458,3.459,9.065,3.458,12.523,0
		C170.794,108.706,170.794,103.099,167.336,99.641z"/>
</g>
</svg>
