<?xml version="1.0" encoding="utf-8"?>
<!-- Generator: Adobe Illustrator 18.0.0, SVG Export Plug-In . SVG Version: 6.00 Build 0)  -->
<!DOCTYPE svg PUBLIC "-//W3C//DTD SVG 1.1//EN" "http://www.w3.org/Graphics/SVG/1.1/DTD/svg11.dtd">
<svg version="1.1" id="Layer_1" xmlns="http://www.w3.org/2000/svg" xmlns:xlink="http://www.w3.org/1999/xlink" x="0px" y="0px"
	 viewBox="0 0 200 200" enable-background="new 0 0 200 200" xml:space="preserve">
<path d="M114.619,37.425c-26.773,0-48.555,21.782-48.555,48.555c0,8.545,2.227,16.577,6.119,23.56l-31.697,31.697
	c-4.882,4.882-4.882,12.796,0,17.678c2.44,2.44,5.64,3.661,8.839,3.661s6.398-1.221,8.839-3.661l31.374-31.374
	c7.325,4.437,15.91,6.995,25.081,6.995c26.773,0,48.556-21.782,48.556-48.556S141.393,37.425,114.619,37.425z M114.619,109.536
	c-12.988,0-23.555-10.567-23.555-23.556c0-12.988,10.566-23.555,23.555-23.555s23.556,10.567,23.556,23.555
	C138.175,98.969,127.608,109.536,114.619,109.536z"/>
</svg>
