<?xml version="1.0" encoding="utf-8"?>
<!-- Generator: Adobe Illustrator 18.0.0, SVG Export Plug-In . SVG Version: 6.00 Build 0)  -->
<!DOCTYPE svg PUBLIC "-//W3C//DTD SVG 1.1//EN" "http://www.w3.org/Graphics/SVG/1.1/DTD/svg11.dtd">
<svg version="1.1" id="Layer_1" xmlns="http://www.w3.org/2000/svg" xmlns:xlink="http://www.w3.org/1999/xlink" x="0px" y="0px"
	 viewBox="0 0 200 200" enable-background="new 0 0 200 200" xml:space="preserve">
<path d="M100,0C44.772,0,0,44.772,0,100c0,55.229,44.772,100,100,100s100-44.771,100-100C200,44.772,155.228,0,100,0z
	 M99.729,36.702c14.196,0,25.704,11.508,25.704,25.704s-11.508,25.704-25.704,25.704c-14.196,0-25.704-11.508-25.704-25.704
	S85.533,36.702,99.729,36.702z M42,152.361c0-32.033,25.967-58,58-58s58,25.967,58,58H42z"/>
</svg>
